<svg xmlns="http://www.w3.org/2000/svg" width="100%" height="100%" viewBox="0 0 1000 1000"><path d="M441.1 410.5L441.1 410.5c-0.7-1.7-3.9-5.5-7.1-7.8 0 0-0.1 0-0.1-0.1 -0.8-0.5-1.6-1-2.3-1.3l0 0c-0.1 0-0.1 0-0.2-0.1 -1.8-0.8-3.7-1.2-5.6-1.2 -1.9 0-3.8 0.4-5.6 1.2 0 0-0.1 0-0.2 0.1l0 0c-0.7 0.3-1.5 0.8-2.3 1.3 0 0 0 0-0.1 0.1 -3.2 2.3-6.3 6.2-7.1 7.8l-56.8 128c-1.8 4-2.1 8.5-0.7 12.5 1.3 4 4.2 7.2 7.9 8.9 1.8 0.8 3.8 1.2 5.8 1.2 6.3 0 12.2-4 14.9-10.2l10.3-23.1h67.8l10.3 23.1c2.8 6.2 8.6 10.2 14.9 10.2 2 0 4-0.4 5.8-1.2 3.8-1.6 6.6-4.9 7.9-8.9 1.4-4 1.2-8.5-0.7-12.5L441.1 410.5 441.1 410.5zM402.7 503.4l23-51.9 23.1 51.9H402.7zM377.2 414.2c0-7.6-6.5-13.8-14.5-13.8H263c-8 0-14.5 6.2-14.5 13.8 0 7.6 6.5 13.8 14.5 13.8h35.3v117c0 9 6.8 16.4 15.1 16.4s15.1-7.4 15.1-16.4V428h34.2C370.8 428 377.2 421.8 377.2 414.2zM609.4 535.4h-67.5V419.1c0-9.2-6.9-16.7-15.4-16.7s-15.4 7.5-15.4 16.7v128.5h0.1c0.5 10 5.3 14.6 15.2 14.6h82.8c7.1 0 12.8-6 12.8-13.5C622.2 541.4 616.5 535.4 609.4 535.4zM500 0C223.9 0 0 223.9 0 500c0 276.1 223.9 500 500 500 276.1 0 500-223.8 500-500S776.2 0 500 0zM502.4 753.6c-21.8 0-43.1-1.7-63.8-4.8l-146.5 93.9L317.7 710c-92.8-48.2-154.1-131.5-154.1-226.2 0-149 151.6-269.8 338.8-269.8 187.1 0 338.8 120.8 338.8 269.8S689.5 753.6 502.4 753.6zM702.3 470.9l37.7-38.3c7.9-8 9.6-19.3 3.8-25.1 -2.3-2.2-5.4-3.4-9-3.4 -5.5 0-11.5 2.8-16.1 7.5l-53.4 54v-44.7c0-10.9-7.5-19.8-16.8-19.8 -9.2 0-16.8 8.9-16.8 19.8v122.5c0 11 7.5 19.8 16.8 19.8 9.2 0 16.8-8.9 16.8-19.8v-34.9l14.7-15 46.7 58.9c4.1 5.1 10 8.3 15.8 8.3 3.3 0 6.2-1 8.6-2.9 3.2-2.6 5.1-6.6 5.2-11.3 0.1-4.7-1.6-9.6-4.8-13.7L702.3 470.9 702.3 470.9 702.3 470.9z" fill="#363636"/></svg>
